<?xml version="1.0" encoding="UTF-8"?>
<svg id="Layer_1" data-name="Layer 1" xmlns="http://www.w3.org/2000/svg" viewBox="0 0 1280 180.89">
  <defs>
    <style>
      .cls-1 {
        fill: #7e5da7;
      }

      .cls-1, .cls-2, .cls-3 {
        stroke-width: 0px;
      }

      .cls-2 {
        fill: #322f32;
      }

      .cls-3 {
        fill: #1b0f28;
      }
    </style>
  </defs>
  <path class="cls-2" d="M262.33,43.44l-.31.32c-.15-.08-.3-.16-.45-.24.25-.03.5-.05.76-.08Z"/>
  <path class="cls-2" d="M262.33,43.44l-.31.32c-.15-.08-.3-.16-.45-.24.25-.03.5-.05.76-.08Z"/>
  <path class="cls-2" d="M262.33,43.44l-.31.32c-.15-.08-.3-.16-.45-.24.25-.03.5-.05.76-.08Z"/>
  <g>
    <g>
      <path class="cls-3" d="M452.9,78.04c-3.65,4.98-10.28,6.65-15.91,4.11-.95-.43-1.92-.82-2.9-1.17-4.4-1.5-9.05-2.24-13.95-2.24-9.14,0-16.86,2.95-23.17,8.85-6.4,5.9-9.59,13.2-9.59,21.93,0,6.81,1.37,12.91,4.11,18.31,2.66,5.4,6.6,9.68,11.84,12.83,5.07,3.24,10.92,4.86,17.57,4.86,6.1,0,11.65-1.21,16.66-3.62,5.5-2.65,12.1-1.16,15.88,3.64l5.91,7.5c5.1,6.47,2.96,16.13-4.53,19.56-.06.03-.11.05-.17.08-5.73,2.57-11.63,4.48-17.69,5.73-6.06,1.25-11.67,1.87-16.82,1.87-14.45,0-27.2-3.03-38.25-9.1-11.05-6.14-19.52-14.2-25.41-24.17-5.9-10.13-8.85-20.97-8.85-32.52,0-10.55,1.78-20.1,5.36-28.65,3.65-8.72,8.68-16.2,15.07-22.42,6.31-6.06,13.99-10.84,23.05-14.33,8.97-3.41,18.64-5.11,29.03-5.11,8.47,0,16.73,1.33,24.79,3.99,2.92.98,5.71,2.11,8.39,3.38,7.38,3.51,9.73,12.89,4.89,19.47l-5.3,7.22Z"/>
      <path class="cls-3" d="M539.49,82.47c-2.08-1.41-4.78-2.2-8.1-2.37h-2.24c-10.13.42-15.2,7.47-15.2,21.18v75.5h-39.87v-75.5c0-36.29,18.35-55.35,55.07-57.18h2.24c2.74.08,5.44.33,8.1.75v37.62Z"/>
      <path class="cls-3" d="M680.14,85.21c3.74,8.39,5.61,17.36,5.61,26.91v1.12c0,.42-.04.87-.12,1.37l-.25,2.12h-15.45v.25h-85.71c1,6.98,4.03,13,9.09,18.06,6.4,6.31,13.87,9.47,22.43,9.47s16.11-3.16,22.42-9.47l.25-.25.37-.5.37-.37.25-.37,21.43,30.65c-6.15,4.98-12.38,8.76-18.69,11.34-8.47,3.32-17.28,4.98-26.41,4.98-12.38,0-23.88-2.95-34.51-8.85-10.88-5.98-19.48-14.16-25.79-24.54-6.48-10.38-9.72-22.05-9.72-35.01,0-9.72,1.87-18.69,5.61-26.91,3.74-8.31,8.89-15.53,15.45-21.68,6.64-6.31,14.12-11.09,22.42-14.33,8.55-3.32,17.4-4.98,26.54-4.98s17.94,1.66,26.41,4.98c8.39,3.24,15.9,7.97,22.55,14.2,6.56,6.06,11.71,13.33,15.45,21.8ZM615.73,80.23c-5.56,0-10.8,1.41-15.7,4.24-2.99,1.83-5.9,4.4-8.72,7.72h48.84c-2.82-3.32-5.73-5.9-8.72-7.72-4.9-2.82-10.13-4.24-15.7-4.24Z"/>
      <path class="cls-3" d="M798.49,173.04c-2.66,1.16-4.61,1.95-5.86,2.37-8.8,3.41-18.02,5.11-27.66,5.11-12.71,0-24.71-2.95-36-8.85-11.3-5.98-20.27-14.12-26.91-24.42-6.73-10.46-10.09-22.13-10.09-35.01,0-9.72,1.95-18.77,5.86-27.16,3.9-8.3,9.26-15.53,16.07-21.68,6.73-6.15,14.53-10.84,23.42-14.08,8.89-3.4,18.1-5.11,27.66-5.11s18.69,1.66,27.66,4.98c8.97,3.32,16.78,8.06,23.42,14.2,6.98,6.31,12.37,13.54,16.2,21.68,3.9,8.39,5.86,17.44,5.86,27.16l-.12,64.91-39.49-.37v-3.74ZM736.32,96.18c-3.07,4.9-4.61,10.26-4.61,16.07,0,8.8,3.32,16.4,9.97,22.8,6.56,6.31,14.33,9.47,23.3,9.47s16.86-3.16,23.42-9.47c6.64-6.4,9.97-13.99,9.97-22.8,0-5.81-1.54-11.17-4.61-16.07-3.07-4.9-7.18-8.8-12.33-11.71-5.07-2.82-10.55-4.24-16.44-4.24s-11.17,1.41-16.32,4.24c-5.15,2.91-9.26,6.81-12.33,11.71Z"/>
      <path class="cls-3" d="M864.39,83.22h-26.29l8.97-34.13h17.32V0l39.74.25v48.84h26.41l-8.85,34.13h-17.57v42.23c0,11.3,7.06,16.94,21.18,16.94,4.57,0,8.06-.54,10.46-1.62l-11.46,39.62c-2.08.33-4.11.5-6.1.5-11.88,0-21.76-1.91-29.65-5.73-7.97-3.82-14-9.59-18.06-17.32-4.07-7.64-6.11-17.4-6.11-29.28v-45.35Z"/>
      <path class="cls-3" d="M1026.75,174.9c-7.34,3.22-16.21,5.05-26.73,5.7-.48.02-.95.04-1.4.04h-.86c-.45,0-.93-.02-1.38-.04-36.25-2.2-54.36-21.24-54.36-57.15v-54.32c0-11.01,8.92-19.93,19.93-19.93,5.51,0,10.49,2.22,14.1,5.83,3.61,3.61,5.83,8.59,5.83,14.1v54.32c0,13.71,5.07,20.73,15.2,21.05h2.25c10.13-.32,15.95-12.82,15.95-26.51v38.86c0,5.51,2.25,10.49,5.85,14.1,1.62,1.62,3.54,2.98,5.63,3.95Z"/>
      <path class="cls-1" d="M1056.54,69.14l-.58,23.92c-.56,2.44-.82,5.22-.82,8.36v24.44c-1.53,25.48-10.41,41.26-28.39,49.05-2.09-.97-4.02-2.33-5.63-3.95-3.61-3.61-5.85-8.59-5.85-14.1v-55.44c0-25.28,8.92-42.21,26.73-50.74,2.53,1.01,4.81,2.5,6.82,4.36,3.89,3.61,6.65,8.59,7.73,14.1Z"/>
      <path class="cls-3" d="M1127.64,101.41v55.44c0,11.01-8.92,19.93-19.93,19.93-5.51,0-10.49-2.22-14.1-5.83-3.61-3.61-5.85-8.59-5.85-14.1v-55.44c0-13.71-5.05-20.77-15.18-21.18h-2.25c-7.84.32-12.63,4.6-14.38,12.82l.58-23.92c-1.08-5.51-3.84-10.49-7.73-14.1-2.01-1.86-4.3-3.35-6.82-4.36,7.75-3.76,17.21-5.89,28.35-6.46h2.25c36.7,1.84,55.05,20.9,55.05,57.19Z"/>
      <path class="cls-3" d="M1170.87,171.92c-11.29-5.98-20.27-14.16-26.91-24.54-6.73-10.46-10.09-22.18-10.09-35.13,0-9.72,1.95-18.77,5.86-27.16,3.9-8.39,9.26-15.65,16.07-21.8,6.89-6.23,14.74-11,23.54-14.33,8.97-3.32,18.15-4.98,27.53-4.98s18.69,1.66,27.66,4.98c8.72,3.16,16.57,7.89,23.54,14.2,6.89,6.31,12.25,13.62,16.07,21.93,3.9,8.39,5.85,17.44,5.85,27.16s-1.91,18.94-5.73,27.16c-3.82,8.31-9.22,15.66-16.2,22.05-7.06,6.31-14.91,11.09-23.54,14.33-8.72,3.41-17.94,5.11-27.66,5.11-12.71,0-24.71-2.99-36-8.97ZM1183.57,135.17c6.56,6.4,14.33,9.59,23.3,9.59s16.86-3.2,23.42-9.59c6.64-6.39,9.97-14.03,9.97-22.92,0-5.81-1.54-11.17-4.61-16.07-3.07-4.9-7.18-8.8-12.33-11.71-5.07-2.91-10.55-4.36-16.44-4.36s-11.17,1.45-16.32,4.36c-5.15,2.91-9.26,6.81-12.33,11.71-3.07,4.9-4.61,10.26-4.61,16.07,0,8.89,3.32,16.53,9.97,22.92Z"/>
    </g>
    <g>
      <path class="cls-1" d="M272.34,93.07c0,13.15,3.45,25.5,9.5,36.2,5.06,8.96,17.34,10.54,24.62,3.27h0c4.9-4.89,6.11-12.49,2.68-18.5-3.52-6.18-5.54-13.33-5.54-20.97s2.03-14.83,5.57-21.02,2.23-13.61-2.66-18.5h0c-7.27-7.28-19.55-5.71-24.62,3.24-6.07,10.71-9.54,23.09-9.54,36.29Z"/>
      <path class="cls-1" d="M85.83,40.25c-13.15,0-25.5-3.45-36.2-9.5-8.96-5.06-10.54-17.34-3.27-24.62h0C51.25,1.24,58.85.03,64.86,3.46c6.18,3.52,13.33,5.54,20.97,5.54s14.83-2.03,21.02-5.57,13.61-2.23,18.5,2.66h0c7.28,7.28,5.71,19.55-3.24,24.62-10.71,6.07-23.09,9.54-36.29,9.54Z"/>
      <path class="cls-1" d="M282.19,154.06h0c-15.64,15.66-37.24,25.36-61.15,25.36-20.2,0-38.77-6.92-53.48-18.54t-.05-.03c-.73-.67-1.48-1.3-2.28-1.87l-.03-.03c-4.46-3.79-8.56-8.01-12.16-12.63h0c-3.63,4.67-7.73,8.95-12.21,12.76-.08.08-.18.13-.26.21-.57.52-1.17.99-1.74,1.45-.03.03-.08.05-.1.08-14.57,11.64-33.04,18.59-53.09,18.59C38.33,179.42,0,140.76,0,93.04c0-24.09,9.78-45.88,25.54-61.57h0s25.8,25.93,25.8,25.93h0c-9.1,9-14.73,21.58-14.73,35.5,0,27.49,21.94,49.74,49.02,49.74s48.94-22.17,49.02-49.61v-.13c0-13.74-5.5-26.19-14.39-35.19h0s25.93-25.78,25.93-25.78h0c2.44,2.46,4.72,5.06,6.85,7.8h0c3.66-4.67,7.81-8.97,12.37-12.81.62-.52,1.27-1.06,1.95-1.58,14.73-11.7,33.38-18.7,53.68-18.7,23.86,0,45.46,9.67,61.07,25.29h0s-25.91,25.93-25.91,25.93h0c-9-9-21.45-14.57-35.17-14.57-29.27,0-52.63,25.26-49.48,55.14,2.43,23.05,21.11,41.66,44.16,44.07,15.82,1.65,30.39-4.17,40.54-14.35h0s25.93,25.91,25.93,25.91Z"/>
    </g>
  </g>
</svg>