<?xml version="1.0" encoding="UTF-8"?>
<svg id="Layer_1" data-name="Layer 1" xmlns="http://www.w3.org/2000/svg" viewBox="0 0 1280 248.34">
  <defs>
    <style>
      .cls-1 {
        fill: #1b0f28;
        stroke-width: 0px;
      }
    </style>
  </defs>
  <path class="cls-1" d="M144.52,107.13c-5.02,6.83-14.11,9.13-21.84,5.64-1.3-.59-2.63-1.12-3.99-1.6-6.05-2.05-12.43-3.08-19.16-3.08-12.54,0-23.15,4.05-31.81,12.14-8.78,8.1-13.17,18.13-13.17,30.1,0,9.35,1.88,17.73,5.64,25.14,3.65,7.41,9.07,13.28,16.25,17.62,6.95,4.45,14.99,6.67,24.12,6.67,8.37,0,16-1.66,22.87-4.97,7.55-3.64,16.61-1.59,21.8,4.99l8.12,10.3c7,8.88,4.06,22.14-6.22,26.86-.08.04-.15.07-.23.11-7.87,3.53-15.97,6.16-24.29,7.87-8.32,1.71-16.02,2.57-23.09,2.57-19.84,0-37.34-4.16-52.51-12.49-15.17-8.44-26.8-19.5-34.89-33.18-8.1-13.91-12.14-28.79-12.14-44.64,0-14.48,2.45-27.59,7.35-39.34,5.02-11.97,11.91-22.23,20.69-30.78,8.66-8.32,19.21-14.88,31.64-19.67,12.31-4.68,25.6-7.01,39.85-7.01,11.63,0,22.97,1.82,34.04,5.47,4.01,1.35,7.85,2.9,11.52,4.64,10.13,4.82,13.35,17.69,6.71,26.73l-7.28,9.91Z"/>
  <path class="cls-1" d="M263.39,113.22c-2.85-1.94-6.56-3.02-11.12-3.25h-3.08c-13.91.57-20.87,10.26-20.87,29.07v103.64h-54.73v-103.64c0-49.83,25.2-75.99,75.6-78.5h3.08c3.76.11,7.47.46,11.12,1.03v51.65Z"/>
  <path class="cls-1" d="M456.48,116.99c5.13,11.52,7.7,23.83,7.7,36.94v1.54c0,.57-.06,1.2-.17,1.88l-.34,2.91h-21.21v.34h-117.67c1.37,9.58,5.53,17.85,12.48,24.8,8.78,8.67,19.04,13,30.79,13s22.12-4.33,30.78-13l.34-.34.51-.68.51-.51.34-.51,29.42,42.07c-8.44,6.84-16.99,12.03-25.65,15.56-11.63,4.56-23.72,6.84-36.26,6.84-16.99,0-32.78-4.05-47.38-12.14-14.94-8.21-26.74-19.44-35.4-33.69-8.89-14.25-13.34-30.27-13.34-48.06,0-13.34,2.57-25.65,7.7-36.94,5.13-11.4,12.2-21.32,21.21-29.76,9.12-8.66,19.38-15.22,30.78-19.67,11.74-4.56,23.89-6.84,36.43-6.84s24.63,2.28,36.26,6.84c11.51,4.45,21.83,10.94,30.96,19.5,9.01,8.32,16.08,18.3,21.21,29.93ZM368.06,110.14c-7.64,0-14.82,1.94-21.55,5.82-4.1,2.51-8.1,6.05-11.97,10.6h67.04c-3.88-4.56-7.87-8.09-11.97-10.6-6.73-3.87-13.91-5.82-21.55-5.82Z"/>
  <path class="cls-1" d="M618.96,237.56c-3.65,1.6-6.33,2.68-8.04,3.25-12.09,4.68-24.74,7.01-37.97,7.01-17.45,0-33.92-4.05-49.43-12.14-15.51-8.21-27.82-19.38-36.94-33.52-9.24-14.37-13.85-30.38-13.85-48.06,0-13.34,2.68-25.77,8.04-37.28,5.36-11.4,12.71-21.32,22.06-29.76,9.24-8.44,19.95-14.88,32.15-19.33,12.2-4.67,24.86-7.01,37.97-7.01s25.65,2.28,37.97,6.84c12.31,4.56,23.03,11.06,32.15,19.5,9.58,8.67,16.99,18.59,22.23,29.76,5.36,11.52,8.04,23.94,8.04,37.28l-.17,89.11-54.22-.51v-5.13ZM533.61,132.03c-4.22,6.73-6.33,14.08-6.33,22.06,0,12.09,4.56,22.52,13.68,31.3,9.01,8.67,19.67,13,31.98,13s23.14-4.33,32.15-13c9.12-8.78,13.68-19.21,13.68-31.3,0-7.98-2.11-15.33-6.33-22.06-4.22-6.73-9.86-12.08-16.93-16.08-6.96-3.87-14.48-5.82-22.57-5.82s-15.34,1.94-22.4,5.82c-7.07,3.99-12.72,9.35-16.93,16.08Z"/>
  <path class="cls-1" d="M709.43,114.25h-36.09l12.31-46.86h23.77V0l54.56.34v67.04h36.26l-12.14,46.86h-24.12v57.98c0,15.51,9.69,23.26,29.08,23.26,6.27,0,11.06-.74,14.37-2.22l-15.74,54.39c-2.85.45-5.64.68-8.38.68-16.31,0-29.87-2.62-40.7-7.87-10.95-5.24-19.21-13.17-24.8-23.77-5.59-10.49-8.38-23.88-8.38-40.19v-62.26Z"/>
  <path class="cls-1" d="M932.33,240.12c-10.08,4.42-22.26,6.94-36.69,7.82-.65.03-1.3.06-1.93.06h-1.19c-.62,0-1.27-.03-1.9-.06-49.76-3.02-74.63-29.17-74.63-78.46v-74.57c0-15.12,12.24-27.36,27.36-27.36,7.56,0,14.4,3.05,19.35,8,4.95,4.95,8,11.8,8,19.35v74.57c0,18.82,6.97,28.45,20.87,28.9h3.08c13.9-.44,21.9-17.61,21.9-36.4v53.35c0,7.56,3.08,14.4,8.03,19.35,2.22,2.22,4.86,4.09,7.74,5.42Z"/>
  <path class="cls-1" d="M973.23,94.91l-.8,32.84c-.77,3.35-1.13,7.17-1.13,11.47v33.55c-2.1,34.97-14.29,56.64-38.98,67.34-2.88-1.33-5.51-3.2-7.74-5.42-4.95-4.95-8.03-11.8-8.03-19.35v-76.11c0-34.71,12.24-57.95,36.69-69.65,3.47,1.39,6.61,3.44,9.37,5.99,5.34,4.95,9.13,11.8,10.61,19.35Z"/>
  <path class="cls-1" d="M1070.83,139.22v76.11c0,15.12-12.24,27.36-27.36,27.36-7.56,0-14.4-3.05-19.35-8-4.95-4.95-8.03-11.8-8.03-19.35v-76.11c0-18.82-6.94-28.51-20.84-29.08h-3.08c-10.76.44-17.34,6.31-19.74,17.61l.8-32.84c-1.48-7.56-5.28-14.4-10.61-19.35-2.76-2.55-5.9-4.59-9.37-5.99,10.64-5.16,23.62-8.09,38.92-8.86h3.08c50.39,2.52,75.58,28.69,75.58,78.51Z"/>
  <path class="cls-1" d="M1130.18,236.02c-15.51-8.21-27.82-19.44-36.94-33.69-9.24-14.37-13.85-30.44-13.85-48.23,0-13.34,2.68-25.77,8.04-37.28,5.36-11.52,12.71-21.49,22.06-29.93,9.46-8.55,20.24-15.11,32.32-19.67,12.32-4.56,24.91-6.84,37.8-6.84s25.66,2.28,37.97,6.84c11.97,4.34,22.75,10.83,32.32,19.5,9.46,8.67,16.82,18.7,22.07,30.1,5.36,11.52,8.04,23.94,8.04,37.28s-2.62,26-7.87,37.28c-5.25,11.4-12.66,21.49-22.23,30.27-9.69,8.67-20.47,15.22-32.32,19.67-11.97,4.68-24.63,7.01-37.97,7.01-17.45,0-33.92-4.1-49.43-12.31ZM1147.62,185.57c9.01,8.78,19.67,13.17,31.98,13.17s23.14-4.39,32.15-13.17c9.12-8.78,13.68-19.27,13.68-31.47,0-7.98-2.11-15.33-6.33-22.06-4.22-6.73-9.86-12.08-16.93-16.08-6.96-3.99-14.48-5.99-22.57-5.99s-15.34,2-22.4,5.99c-7.07,3.99-12.72,9.35-16.93,16.08-4.22,6.73-6.33,14.08-6.33,22.06,0,12.2,4.56,22.69,13.68,31.47Z"/>
</svg>