<svg width="512" height="512" viewBox="0 0 512 512" fill="none" xmlns="http://www.w3.org/2000/svg">
  <rect width="512" height="512" rx="92" fill="#1B0F28"/>
  <g transform="translate(61, 135) scale(0.304688)">
    <path fill="#FEC714" d="M1120.44,376.88c0,54.11,14.2,104.93,39.07,148.93,20.83,36.86,71.33,43.36,101.27,13.44h0c20.15-20.13,25.14-51.38,11.03-76.12-14.5-25.43-22.79-54.86-22.79-86.26s8.34-61,22.92-86.49c14.14-24.72,9.17-55.98-10.96-76.13h-.01c-29.92-29.96-80.42-23.5-101.29,13.33-24.98,44.07-39.24,95.01-39.24,149.28Z"/>
    <path fill="#FEC714" d="M353.11,159.56c-54.11,0-104.93-14.2-148.93-39.07-36.86-20.83-43.36-71.33-13.44-101.27h0c20.13-20.15,51.38-25.14,76.12-11.03,25.43,14.5,54.86,22.79,86.26,22.79s61-8.34,86.49-22.92c24.72-14.14,55.98-9.17,76.13,10.96h.01c29.95,29.93,23.48,80.43-13.35,101.3-44.07,24.98-95.01,39.24-149.28,39.24Z"/>
    <path fill="#FEC714" d="M1160.95,627.8h0c-64.34,64.45-153.21,104.35-251.59,104.35-83.12,0-159.51-28.49-220.01-76.29q-.11,0-.21-.11c-2.99-2.77-6.08-5.33-9.39-7.68l-.11-.11c-18.35-15.58-35.21-32.97-50.04-51.96h0c-14.94,19.2-31.79,36.81-50.25,52.49-.32.32-.75.53-1.07.85-2.35,2.13-4.8,4.05-7.15,5.98-.11.11-.32.21-.43.32-59.96,47.91-135.93,76.5-218.41,76.5C157.7,732.15,0,573.06,0,376.74c0-99.12,40.22-188.74,105.09-253.29h0s106.16,106.69,106.16,106.69h0c-37.45,37.03-60.6,88.77-60.6,146.07,0,113.1,90.26,204.64,201.66,204.64s201.33-91.22,201.65-204.11v-.53c0-56.55-22.62-107.76-59.21-144.78h0s106.69-106.06,106.69-106.06h0c10.03,10.13,19.42,20.8,28.16,32.11h0c15.04-19.2,32.11-36.91,50.89-52.7,2.56-2.13,5.23-4.37,8-6.51,60.6-48.12,137.32-76.93,220.86-76.93,98.16,0,187.04,39.8,251.27,104.03h0s-106.59,106.7-106.59,106.7h0c-37.02-37.02-88.24-59.96-144.68-59.96-120.42,0-216.53,103.91-203.58,226.84,9.99,94.85,86.83,171.4,181.69,181.3,65.1,6.8,125.03-17.16,166.77-59.03h0s106.69,106.58,106.69,106.58Z"/>
  </g>
</svg>